<?xml version="1.0" encoding="UTF-8"?>
<!DOCTYPE svg PUBLIC "-//W3C//DTD SVG 1.1//EN" "http://www.w3.org/Graphics/SVG/1.1/DTD/svg11.dtd">
<!-- Creator: CorelDRAW 2018 (64-Bit) -->
<svg xmlns="http://www.w3.org/2000/svg" xml:space="preserve" width="26.4582mm" height="26.4582mm" version="1.1" style="shape-rendering:geometricPrecision; text-rendering:geometricPrecision; image-rendering:optimizeQuality; fill-rule:evenodd; clip-rule:evenodd"
viewBox="0 0 2645.82 2645.82"
 xmlns:xlink="http://www.w3.org/1999/xlink">
 <defs>
  <style type="text/css">
   <![CDATA[
    .fil1 {fill:#210068}
    .fil0 {fill:#EB5757}
   ]]>
  </style>
 </defs>
 <g id="Layer_x0020_1">
  <metadata id="CorelCorpID_0Corel-Layer"/>
  <path class="fil0" d="M336.03 6.21l1976.6 0c177.79,0 320.91,128.02 320.91,287.03l0 2044.38c0,159.02 -143.12,287.03 -320.91,287.03l-1976.6 0.01c-177.79,0 -320.91,-128 -320.91,-287.02l0 -2044.39c0,-159.02 143.12,-287.02 320.91,-287.02l0 -0.02z"/>
  <path class="fil1" d="M834.05 946.66l403.49 -54.95 0.18 389.21 -403.31 2.29 -0.36 -336.54 0 -0.01zm403.3 379.1l0.31 389.54 -403.3 -55.45 -0.02 -336.7 403.01 2.61 0 0zm48.91 -441.24l535 -78.08 0 469.53 -535 4.24 0 -395.69 0 0zm535.12 444.9l-0.12 467.41 -535 -75.51 -0.75 -392.77 535.87 0.87z"/>
 </g>
</svg>
