<?xml version="1.0" encoding="UTF-8"?>
<!DOCTYPE svg PUBLIC "-//W3C//DTD SVG 1.1//EN" "http://www.w3.org/Graphics/SVG/1.1/DTD/svg11.dtd">
<!-- Creator: CorelDRAW 2018 (64-Bit) -->
<svg xmlns="http://www.w3.org/2000/svg" xml:space="preserve" width="210mm" height="297mm" version="1.1" style="shape-rendering:geometricPrecision; text-rendering:geometricPrecision; image-rendering:optimizeQuality; fill-rule:evenodd; clip-rule:evenodd"
viewBox="0 0 21000 29700"
 xmlns:xlink="http://www.w3.org/1999/xlink">
 <defs>
  <style type="text/css">
   <![CDATA[
    .fil1 {fill:#210068}
    .fil0 {fill:white}
   ]]>
  </style>
 </defs>
 <g id="Layer_x0020_1">
  <metadata id="CorelCorpID_0Corel-Layer"/>
  <path class="fil0" d="M1915.81 1286.87l1627.87 0c146.42,0 264.29,105.44 264.29,236.39l0 1683.69c0,130.96 -117.87,236.38 -264.29,236.38l-1627.87 0.02c-146.42,0 -264.29,-105.43 -264.29,-236.39l0 -1683.69c0,-130.96 117.87,-236.39 264.29,-236.39l0 -0.01z"/>
  <path class="fil1" d="M2267.85 1883.44l332.31 -45.25 0.14 320.53 -332.15 1.89 -0.3 -277.17 0 0zm332.15 312.21l0.25 320.82 -332.14 -45.67 -0.02 -277.3 331.91 2.15 0 0zm40.28 -363.39l440.61 -64.3 0 386.69 -440.61 3.49 0 -325.87 0 -0.01zm440.71 366.41l-0.1 384.94 -440.61 -62.18 -0.62 -323.48 441.33 0.72z"/>
 </g>
</svg>
